# xmcd
#
# Track frame offsets:
# 150
# 14830
# 30506
# 44383
# 56472
# 72451
# 85418
# 97463
# 114374
# 133180
# 144843
# 161310
# 176672
# 195291
# 208853
# 223808
# 236547
# 254699
# 269570
# 285128
# 301647
# 315408
#
# Disc length: 4384 seconds
#
#
# Revision: 0
# Processed by: cddbd v1.5.2PL0 Copyright (c) Steve Scherf et al.
# Submitted via: FreeRIP 2.951 
#
DISCID=41111e16
DTITLE=Vários - Pancadão Sertanejo
DYEAR=1900
DGENRE=Sertanejo
TTITLE0=Galera coração
TTITLE1=Que pesca que nada
TTITLE2=Coração de cowboy
TTITLE3=A bebida não cura
TTITLE4=Bebo pa carai
TTITLE5=Clube do batidão
TTITLE6=Aconteceu comigo
TTITLE7=Aló meu povo
TTITLE8=Agora aquenta nois
TTITLE9=Nois gosta de muié
TTITLE10=Tradição gaúcha
TTITLE11=Pra lá de bagdá
TTITLE12=Bebedeira
TTITLE13=Rancho velho oeste
TTITLE14=Solte a garganta
TTITLE15=Apaziquar
TTITLE16=A mulher e a bebida
TTITLE17=O amor me pegou
TTITLE18=Ela mexe comigo
TTITLE19=Eu gosto de mulher
TTITLE20=Demorou
TTITLE21=Virou amor
EXTD=
EXTT0=
EXTT1=
EXTT2=
EXTT3=
EXTT4=
EXTT5=
EXTT6=
EXTT7=
EXTT8=
EXTT9=
EXTT10=
EXTT11=
EXTT12=
EXTT13=
EXTT14=
EXTT15=
EXTT16=
EXTT17=
EXTT18=
EXTT19=
EXTT20=
EXTT21=
PLAYORDER=
